<?xml version="1.0" standalone="no"?><!DOCTYPE svg PUBLIC "-//W3C//DTD SVG 1.1//EN" "http://www.w3.org/Graphics/SVG/1.1/DTD/svg11.dtd"><svg t="1650617358961" class="icon" viewBox="0 0 1024 1024" version="1.1" xmlns="http://www.w3.org/2000/svg" p-id="13510" xmlns:xlink="http://www.w3.org/1999/xlink" width="200" height="200"><defs><style type="text/css">@font-face { font-family: feedback-iconfont; src: url("//at.alicdn.com/t/font_1031158_u69w8yhxdu.woff2?t=1630033759944") format("woff2"), url("//at.alicdn.com/t/font_1031158_u69w8yhxdu.woff?t=1630033759944") format("woff"), url("//at.alicdn.com/t/font_1031158_u69w8yhxdu.ttf?t=1630033759944") format("truetype"); }
</style></defs><path d="M170.666667 170.666667m85.333333 0l554.666667 0q85.333333 0 85.333333 85.333333l0 384q0 85.333333-85.333333 85.333333l-554.666667 0q-85.333333 0-85.333333-85.333333l0-384q0-85.333333 85.333333-85.333333Z" fill="#666666" p-id="13511"></path><path d="M512 640H256v221.44a37.12 37.12 0 0 0 62.72 26.453333L512 701.44z" fill="#666666" p-id="13512"></path><path d="M298.666667 341.333333m21.333333 0l426.666667 0q21.333333 0 21.333333 21.333334l0 0q0 21.333333-21.333333 21.333333l-426.666667 0q-21.333333 0-21.333333-21.333333l0 0q0-21.333333 21.333333-21.333334Z" fill="#F2F2F2" p-id="13513"></path><path d="M298.666667 512m21.333333 0l426.666667 0q21.333333 0 21.333333 21.333333l0 0q0 21.333333-21.333333 21.333334l-426.666667 0q-21.333333 0-21.333333-21.333334l0 0q0-21.333333 21.333333-21.333333Z" fill="#F2F2F2" p-id="13514"></path></svg>