<?xml version="1.0" standalone="no"?><!DOCTYPE svg PUBLIC "-//W3C//DTD SVG 1.1//EN" "http://www.w3.org/Graphics/SVG/1.1/DTD/svg11.dtd"><svg t="1650617362667" class="icon" viewBox="0 0 1024 1024" version="1.1" xmlns="http://www.w3.org/2000/svg" p-id="13647" xmlns:xlink="http://www.w3.org/1999/xlink" width="200" height="200"><defs><style type="text/css">@font-face { font-family: feedback-iconfont; src: url("//at.alicdn.com/t/font_1031158_u69w8yhxdu.woff2?t=1630033759944") format("woff2"), url("//at.alicdn.com/t/font_1031158_u69w8yhxdu.woff?t=1630033759944") format("woff"), url("//at.alicdn.com/t/font_1031158_u69w8yhxdu.ttf?t=1630033759944") format("truetype"); }
</style></defs><path d="M42.666667 42.666667m128 0l682.666666 0q128 0 128 128l0 682.666666q0 128-128 128l-682.666666 0q-128 0-128-128l0-682.666666q0-128 128-128Z" fill="#131415" p-id="13648"></path><path d="M582.741333 241.088a181.333333 181.333333 0 0 1 212.437334 293.909333l-4.416 3.178667-122.325334 85.653333a181.333333 181.333333 0 0 1-252.544-44.522666 32 32 0 0 1 52.416-36.714667 117.333333 117.333333 0 0 0 159.488 31.445333l3.925334-2.624 122.325333-85.653333a117.333333 117.333333 0 0 0-130.666667-194.858667l-3.925333 2.624-34.944 24.469334a32 32 0 0 1-39.168-50.538667l2.453333-1.877333 34.944-24.490667z m-227.178666 159.082667a181.333333 181.333333 0 0 1 252.544 44.522666 32 32 0 0 1-52.416 36.714667 117.333333 117.333333 0 0 0-159.488-31.445333l-3.925334 2.624-122.325333 85.653333a117.333333 117.333333 0 0 0 130.666667 194.858667l3.925333-2.624 34.944-24.469334a32 32 0 0 1 39.168 50.538667l-2.453333 1.877333-34.944 24.490667a181.333333 181.333333 0 0 1-212.437334-293.909333l4.416-3.178667 122.325334-85.653333z" fill="#FFFFFF" p-id="13649"></path></svg>