<?xml version="1.0" standalone="no"?><!DOCTYPE svg PUBLIC "-//W3C//DTD SVG 1.1//EN" "http://www.w3.org/Graphics/SVG/1.1/DTD/svg11.dtd"><svg t="1650617345495" class="icon" viewBox="0 0 1024 1024" version="1.1" xmlns="http://www.w3.org/2000/svg" p-id="13105" xmlns:xlink="http://www.w3.org/1999/xlink" width="200" height="200"><defs><style type="text/css">@font-face { font-family: feedback-iconfont; src: url("//at.alicdn.com/t/font_1031158_u69w8yhxdu.woff2?t=1630033759944") format("woff2"), url("//at.alicdn.com/t/font_1031158_u69w8yhxdu.woff?t=1630033759944") format("woff"), url("//at.alicdn.com/t/font_1031158_u69w8yhxdu.ttf?t=1630033759944") format("truetype"); }
</style></defs><path d="M512 1024C229.226667 1024 0 794.773333 0 512S229.226667 0 512 0s512 229.226667 512 512-229.226667 512-512 512z m0-40.149333c260.586667 0 471.850667-211.264 471.850667-471.850667 0-260.586667-211.264-471.850667-471.850667-471.850667C251.413333 40.149333 40.149333 251.413333 40.149333 512c0 260.586667 211.264 471.850667 471.850667 471.850667z" p-id="13106"></path><path d="M463.232 558.634667l208.832-203.52a48.512 48.512 0 0 1 68.138667 0.426666 47.274667 47.274667 0 0 1-0.426667 67.285334L501.226667 655.317333a50.197333 50.197333 0 0 1-76.586667 6.677334l-148.906667-148.906667a50.197333 50.197333 0 1 1 70.976-70.997333l116.522667 116.544z" p-id="13107"></path></svg>